<?xml version="1.0" encoding="UTF-8" standalone="no"?>
<!DOCTYPE svg PUBLIC "-//W3C//DTD SVG 1.1//EN"
 "http://www.w3.org/Graphics/SVG/1.1/DTD/svg11.dtd">
<!-- Generated by graphviz version 2.40.1 (20161225.0304)
 -->
<!-- Title: G Pages: 1 -->
<svg width="266pt" height="474pt"
 viewBox="0.00 0.00 266.29 474.00" xmlns="http://www.w3.org/2000/svg" xmlns:xlink="http://www.w3.org/1999/xlink">
<g id="graph0" class="graph" transform="scale(1 1) rotate(0) translate(4 470)">
<title>G</title>
<polygon fill="#ffffff" stroke="transparent" points="-4,4 -4,-470 262.292,-470 262.292,4 -4,4"/>
<!-- A0 -->
<g id="node1" class="node">
<title>A0</title>
<polygon fill="none" stroke="#000000" points="141.3082,-466 55.7058,-466 55.7058,-430 141.3082,-430 141.3082,-466"/>
<text text-anchor="middle" x="98.507" y="-445" font-family="Helvetica,sans-Serif" font-size="10.00" fill="#000000">Backend API</text>
</g>
<!-- A1 -->
<g id="node2" class="node">
<title>A1</title>
<polygon fill="none" stroke="#000000" points="113.021,-380 -.007,-380 -.007,-344 113.021,-344 113.021,-380"/>
<text text-anchor="middle" x="56.507" y="-365" font-family="Helvetica,sans-Serif" font-size="10.00" fill="#000000">Layer 1: Network &amp;</text>
<text text-anchor="middle" x="56.507" y="-353" font-family="Helvetica,sans-Serif" font-size="10.00" fill="#000000">Cache</text>
</g>
<!-- A0&#45;&gt;A1 -->
<g id="edge1" class="edge">
<title>A0&#45;&gt;A1</title>
<path fill="none" stroke="#000000" d="M89.5999,-429.7616C83.8644,-418.0176 76.3034,-402.5355 69.8566,-389.3349"/>
<polygon fill="#000000" stroke="#000000" points="65.4013,-380.2121 73.8332,-387.223 67.5955,-384.7049 69.7897,-389.1978 69.7897,-389.1978 69.7897,-389.1978 67.5955,-384.7049 65.7461,-391.1726 65.4013,-380.2121 65.4013,-380.2121"/>
</g>
<!-- A2 -->
<g id="node3" class="node">
<title>A2</title>
<polygon fill="none" stroke="#000000" points="111.3022,-294 5.7118,-294 5.7118,-258 111.3022,-258 111.3022,-294"/>
<text text-anchor="middle" x="58.507" y="-279" font-family="Helvetica,sans-Serif" font-size="10.00" fill="#000000">Layer 2: Parser &amp;</text>
<text text-anchor="middle" x="58.507" y="-267" font-family="Helvetica,sans-Serif" font-size="10.00" fill="#000000">Validator</text>
</g>
<!-- A1&#45;&gt;A2 -->
<g id="edge2" class="edge">
<title>A1&#45;&gt;A2</title>
<path fill="none" stroke="#000000" d="M56.9311,-343.7616C57.1963,-332.3597 57.5434,-317.4342 57.8443,-304.494"/>
<polygon fill="#000000" stroke="#000000" points="58.0835,-294.2121 62.3497,-304.3141 57.9672,-299.2107 57.8509,-304.2094 57.8509,-304.2094 57.8509,-304.2094 57.9672,-299.2107 53.3521,-304.1047 58.0835,-294.2121 58.0835,-294.2121"/>
</g>
<!-- A3 -->
<g id="node4" class="node">
<title>A3</title>
<polygon fill="none" stroke="#000000" points="156.2025,-122 56.8115,-122 56.8115,-86 156.2025,-86 156.2025,-122"/>
<text text-anchor="middle" x="106.507" y="-107" font-family="Helvetica,sans-Serif" font-size="10.00" fill="#000000">Layer 3: State &amp;</text>
<text text-anchor="middle" x="106.507" y="-95" font-family="Helvetica,sans-Serif" font-size="10.00" fill="#000000">Rule Engine</text>
</g>
<!-- A2&#45;&gt;A3 -->
<g id="edge3" class="edge">
<title>A2&#45;&gt;A3</title>
<path fill="none" stroke="#000000" d="M62.9415,-257.896C68.0983,-237.0937 76.9946,-201.9668 85.507,-172 89.2788,-158.7217 93.758,-144.0824 97.6087,-131.7988"/>
<polygon fill="#000000" stroke="#000000" points="100.6663,-122.1162 101.9462,-133.0071 99.1606,-126.8841 97.655,-131.6521 97.655,-131.6521 97.655,-131.6521 99.1606,-126.8841 93.3639,-130.297 100.6663,-122.1162 100.6663,-122.1162"/>
</g>
<!-- A4 -->
<g id="node5" class="node">
<title>A4</title>
<polygon fill="none" stroke="#000000" points="124.03,-36 10.984,-36 10.984,0 124.03,0 124.03,-36"/>
<text text-anchor="middle" x="67.507" y="-21" font-family="Helvetica,sans-Serif" font-size="10.00" fill="#000000">Layer 4: Rendering</text>
<text text-anchor="middle" x="67.507" y="-9" font-family="Helvetica,sans-Serif" font-size="10.00" fill="#000000">Engine</text>
</g>
<!-- A2&#45;&gt;A4 -->
<g id="edge4" class="edge">
<title>A2&#45;&gt;A4</title>
<path fill="none" stroke="#000000" d="M55.0464,-257.8209C49.1176,-223.8778 38.488,-148.6281 47.507,-86 49.4529,-72.4879 53.4681,-57.9169 57.3937,-45.7421"/>
<polygon fill="#000000" stroke="#000000" points="60.6228,-36.1549 61.6955,-47.0682 59.0268,-40.8933 57.4309,-45.6318 57.4309,-45.6318 57.4309,-45.6318 59.0268,-40.8933 53.1662,-44.1954 60.6228,-36.1549 60.6228,-36.1549"/>
</g>
<!-- A5 -->
<g id="node6" class="node">
<title>A5</title>
<polygon fill="none" stroke="#000000" points="188.6945,-208 94.3195,-208 94.3195,-172 188.6945,-172 188.6945,-208"/>
<text text-anchor="middle" x="141.507" y="-193" font-family="Helvetica,sans-Serif" font-size="10.00" fill="#000000">Layer 5: Action</text>
<text text-anchor="middle" x="141.507" y="-181" font-family="Helvetica,sans-Serif" font-size="10.00" fill="#000000">Resolver</text>
</g>
<!-- A2&#45;&gt;A5 -->
<g id="edge5" class="edge">
<title>A2&#45;&gt;A5</title>
<path fill="none" stroke="#000000" d="M76.1092,-257.7616C87.9937,-245.4475 103.8447,-229.0235 116.9648,-215.4293"/>
<polygon fill="#000000" stroke="#000000" points="123.9302,-208.2121 120.2237,-218.5326 120.458,-211.8098 116.9857,-215.4076 116.9857,-215.4076 116.9857,-215.4076 120.458,-211.8098 113.7478,-212.2826 123.9302,-208.2121 123.9302,-208.2121"/>
</g>
<!-- A3&#45;&gt;A4 -->
<g id="edge7" class="edge">
<title>A3&#45;&gt;A4</title>
<path fill="none" stroke="#000000" d="M98.2361,-85.7616C92.9103,-74.0176 85.8894,-58.5355 79.903,-45.3349"/>
<polygon fill="#000000" stroke="#000000" points="75.766,-36.2121 83.9944,-43.4608 77.831,-40.7657 79.8961,-45.3194 79.8961,-45.3194 79.8961,-45.3194 77.831,-40.7657 75.7978,-47.1779 75.766,-36.2121 75.766,-36.2121"/>
</g>
<!-- A6 -->
<g id="node7" class="node">
<title>A6</title>
<polygon fill="none" stroke="#000000" points="252.0781,-122 174.9359,-122 174.9359,-86 258.0781,-86 258.0781,-116 252.0781,-122"/>
<polyline fill="none" stroke="#000000" points="252.0781,-122 252.0781,-116 "/>
<polyline fill="none" stroke="#000000" points="258.0781,-116 252.0781,-116 "/>
<text text-anchor="middle" x="216.507" y="-101" font-family="Helvetica,sans-Serif" font-size="10.00" fill="#000000">Store Redux</text>
</g>
<!-- A3&#45;&gt;A6 -->
<g id="edge6" class="edge">
<title>A3&#45;&gt;A6</title>
<path fill="none" stroke="#000000" stroke-dasharray="5,2" d="M156.3508,-104C162.4604,-104 168.57,-104 174.6796,-104"/>
</g>
<!-- A5&#45;&gt;A0 -->
<g id="edge10" class="edge">
<title>A5&#45;&gt;A0</title>
<path fill="none" stroke="#000000" d="M141.1366,-208.0396C140.1234,-242.0638 136.3649,-317.8777 122.507,-380 119.4831,-393.5554 114.5731,-408.1322 109.9794,-420.2995"/>
<polygon fill="#000000" stroke="#000000" points="106.2435,-429.8781 105.6848,-418.9265 108.0604,-425.2199 109.8772,-420.5616 109.8772,-420.5616 109.8772,-420.5616 108.0604,-425.2199 114.0696,-422.1968 106.2435,-429.8781 106.2435,-429.8781"/>
</g>
<!-- A5&#45;&gt;A3 -->
<g id="edge9" class="edge">
<title>A5&#45;&gt;A3</title>
<path fill="none" stroke="#000000" d="M134.0844,-171.7616C129.3513,-160.1316 123.1262,-144.8357 117.7884,-131.72"/>
<polygon fill="#000000" stroke="#000000" points="113.9189,-122.2121 121.8566,-129.7781 115.8037,-126.8433 117.6885,-131.4744 117.6885,-131.4744 117.6885,-131.4744 115.8037,-126.8433 113.5205,-133.1707 113.9189,-122.2121 113.9189,-122.2121"/>
</g>
<!-- A7 -->
<g id="node8" class="node">
<title>A7</title>
<polygon fill="none" stroke="#000000" points="257.5581,-294 169.4559,-294 169.4559,-258 257.5581,-258 257.5581,-294"/>
<text text-anchor="middle" x="213.507" y="-273" font-family="Helvetica,sans-Serif" font-size="10.00" fill="#000000">User Browser</text>
</g>
<!-- A7&#45;&gt;A5 -->
<g id="edge8" class="edge">
<title>A7&#45;&gt;A5</title>
<path fill="none" stroke="#000000" d="M198.2377,-257.7616C188.1191,-245.6756 174.686,-229.6304 163.4313,-216.1874"/>
<polygon fill="#000000" stroke="#000000" points="156.7543,-208.2121 166.6242,-212.991 159.964,-212.0459 163.1737,-215.8797 163.1737,-215.8797 163.1737,-215.8797 159.964,-212.0459 159.7233,-218.7684 156.7543,-208.2121 156.7543,-208.2121"/>
</g>
</g>
</svg>
